{"title":"The Lemon Drop Kid(1951)MPEG-4[DaScubaDude]","uid":15346750,"size":922136724,"categoryP":"video","categoryS":"movies","magnet":"?xt=urn:btih:2e672d89931ddcc12891f57eff95273ea98fa333&amp;dn=The+Lemon+Drop+Kid%281951%29MPEG-4%5BDaScubaDude%5D&amp;tr=udp%3A%2F%2Ftracker.leechers-paradise.org%3A6969&amp;tr=udp%3A%2F%2Fzer0day.ch%3A1337&amp;tr=udp%3A%2F%2Fopen.demonii.com%3A1337&amp;tr=udp%3A%2F%2Ftracker.coppersurfer.tk%3A6969&amp;tr=udp%3A%2F%2Fexodus.desync.com%3A6969","seeders":0,"leechers":1,"uploader":"dascuba","files":1,"time":1468887480,"description":"The Lemon Drop Kid (1951)\r\n1h 31min | Comedy, Music, Romance | 2 April 1951 (USA)\r\nWhen the Lemon Drop Kid accidentally steers Moose Moran's girl away from a winning bet, he is forced to come up with $10,000 to repay the angry gangster. Fortunately it's Christmas, a time ... See full summary »\r\nDirectors: Sidney Lanfield, Frank Tashlin (uncredited)\r\nWriters: Edmund Beloin (story), Irving Elinson (additional dialogue) |\r\nStars: Bob Hope, Marilyn Maxwell, Lloyd Nolan \r\n\r\nGeneral\r\nComplete name                            : The LemonDropKidTHE_LEMON_DROP_KID_Title3.mp4\r\nFormat                                   : MPEG-4\r\nFormat profile                           : Base Media\r\nCodec ID                                 : isom (isom/iso2/avc1/mp41)\r\nFile size                                : 879 MiB\r\nDuration                                 : 1h 31mn\r\nOverall bit rate mode                    : Variable\r\nOverall bit rate                         : 1 344 Kbps\r\nMovie name                               : THE_LEMON_DROP_KID\r\nGenre                                    : Drama\r\nWriting application                      : Lavf54.6.100\r\n\r\nVideo\r\nID                                       : 1\r\nFormat                                   : AVC\r\nFormat/Info                              : Advanced Video Codec\r\nFormat profile                           :   \r\nFormat settings, CABAC                   : No\r\nFormat settings, ReFrames                : 6 frames\r\nFormat settings, GOP                     : M=1, N=60\r\nCodec ID                                 : avc1\r\nCodec ID/Info                            : Advanced Video Coding\r\nDuration                                 : 1h 31mn\r\nBit rate                                 : 1 200 Kbps\r\nWidth                                    : 720 pixels\r\nHeight                                   : 540 pixels\r\nDisplay aspect ratio                     : 4:3\r\nFrame rate mode                          : Constant\r\nFrame rate                               : 29.970 (30000/1001) fps\r\nColor space                              : YUV\r\nChroma subsampling                       : 4:2:0\r\nBit depth                                : 8 bits\r\nScan type                                : Progressive\r\nBits/(Pixel*Frame)                       : 0.103\r\nStream size                              : 786 MiB (89%)\r\n\r\nAudio\r\nID                                       : 2\r\nFormat                                   : AAC\r\nFormat/Info                              : Advanced Audio Codec\r\nFormat profile                           : LC\r\nCodec ID                                 : 40\r\nDuration                                 : 1h 31mn\r\nBit rate mode                            : Variable\r\nBit rate                                 : 137 Kbps\r\nMaximum bit rate                         : 147 Kbps\r\nChannel(s)                               : 2 channels\r\nChannel positions                        : Front: L R\r\nSampling rate                            : 44.1 KHz\r\nFrame rate                               : 43.066 fps (1024 spf)\r\nCompression mode                         : Lossy\r\nStream size                              : 89.4 MiB (10%)\r\nDefault                                  : Yes\r\nAlternate group                          : 1","torrent":{"xt":"urn:btih:2e672d89931ddcc12891f57eff95273ea98fa333","amp;dn":"The+Lemon+Drop+Kid%281951%29MPEG-4%5BDaScubaDude%5D","amp;tr":["udp%3A%2F%2Ftracker.leechers-paradise.org%3A6969","udp%3A%2F%2Fzer0day.ch%3A1337","udp%3A%2F%2Fopen.demonii.com%3A1337","udp%3A%2F%2Ftracker.coppersurfer.tk%3A6969","udp%3A%2F%2Fexodus.desync.com%3A6969"],"infoHash":"2e672d89931ddcc12891f57eff95273ea98fa333","infoHashBuffer":{"type":"Buffer","data":[46,103,45,137,147,29,220,193,40,145,245,126,255,149,39,62,169,143,163,51]},"announce":[],"urlList":[]}}